<?xml version="1.0" encoding="UTF-8" standalone="no"?>
<!-- Generator: Gravit.io -->
<svg xmlns="http://www.w3.org/2000/svg" xmlns:xlink="http://www.w3.org/1999/xlink" style="isolation:isolate" viewBox="0 0 50 61" width="50" height="61"><defs><clipPath id="_clipPath_kPabmSdl510DXjsC60cnsM7p3K2T3RIN"><rect width="50" height="61"/></clipPath></defs><g clip-path="url(#_clipPath_kPabmSdl510DXjsC60cnsM7p3K2T3RIN)"><path d=" M 23.749 37.544 C 22.879 37.484 21.67 37.294 20.9 37.084 C 20.49 36.974 19.99 36.844 19.801 36.805 C 19.071 36.635 17.551 35.955 16.602 35.375 C 16.412 35.255 16.192 35.155 16.112 35.135 C 15.902 35.105 15.302 34.775 15.302 34.685 C 15.302 34.635 15.252 34.605 15.192 34.605 C 15.133 34.605 14.943 34.495 14.763 34.356 C 14.583 34.216 14.413 34.106 14.383 34.106 C 14.353 34.106 14.173 33.966 13.993 33.786 C 13.803 33.616 13.383 33.256 13.053 32.996 C 12.394 32.476 11.774 31.837 11.134 31.007 C 10.904 30.707 10.574 30.307 10.414 30.117 C 10.256 29.931 10.116 29.73 9.995 29.518 C 9.915 29.378 9.765 29.128 9.645 28.958 C 9.525 28.798 9.395 28.508 9.355 28.338 C 9.325 28.158 9.245 28.008 9.195 28.008 C 9.139 28.008 8.106 26.514 7.41 24.19 C 6.873 22.4 6.606 19.648 6.706 19.604 C 7.476 19.314 6.706 19.382 6.706 18.512 C 6.706 18.092 6.726 17.723 6.756 17.693 C 6.786 17.663 6.826 17.063 6.846 16.353 C 6.876 15.254 6.926 14.954 7.156 14.314 C 7.436 13.544 7.576 13.174 7.696 12.915 C 7.736 12.835 7.856 12.435 7.956 12.045 C 8.055 11.645 8.175 11.315 8.225 11.315 C 8.305 11.315 9.005 9.906 9.005 9.726 C 9.005 9.666 9.065 9.616 9.145 9.616 C 9.225 9.616 9.325 9.526 9.355 9.406 C 9.395 9.296 9.555 9.006 9.715 8.766 C 9.875 8.526 10.005 8.316 10.005 8.287 C 10.005 8.247 10.125 8.107 10.275 7.957 C 10.534 7.697 10.534 7.677 10.355 7.607 C 10.045 7.487 8.435 7.507 7.766 7.627 C 6.746 7.817 5.557 8.356 4.937 8.906 C 3.917 9.816 3.717 10.486 4.117 11.665 C 4.337 12.325 5.107 13.514 5.307 13.514 C 5.357 13.514 5.407 13.584 5.407 13.664 C 5.407 13.744 5.507 13.904 5.637 14.014 C 5.956 14.294 5.996 15.054 5.716 15.643 C 5.327 16.483 5.207 16.793 5.207 16.953 C 5.207 17.263 4.757 17.123 4.227 16.643 C 3.317 15.803 1.528 13.604 1.188 12.915 C 1.008 12.555 0.739 12.075 0.589 11.855 C -0.001 10.965 -0.191 8.516 0.219 6.997 C 0.339 6.567 0.469 6.217 0.509 6.217 C 0.549 6.217 0.619 6.067 0.649 5.878 C 0.689 5.698 0.799 5.438 0.908 5.318 C 1.018 5.188 1.108 5.028 1.108 4.958 C 1.108 4.718 2.298 3.549 2.588 3.489 C 2.878 3.439 3.447 3.249 3.727 3.109 C 3.827 3.059 4.057 3.019 4.247 3.019 C 4.437 3.019 4.717 2.969 4.877 2.909 C 5.287 2.749 8.195 2.689 9.305 2.809 C 9.825 2.869 10.634 2.969 11.104 3.019 C 11.574 3.069 12.314 3.189 12.754 3.279 C 14.433 3.628 14.233 3.638 14.923 3.149 C 15.272 2.909 16.202 2.399 17.002 2.009 C 17.801 1.629 18.581 1.249 18.731 1.17 C 18.891 1.09 19.081 1.02 19.161 1.02 C 19.251 1.02 19.411 0.97 19.531 0.9 C 19.651 0.84 19.841 0.78 19.95 0.76 C 20.06 0.75 20.47 0.64 20.85 0.52 C 21.24 0.4 21.71 0.28 21.9 0.26 C 22.09 0.23 22.339 0.17 22.449 0.12 C 22.559 0.07 23.939 0.04 25.548 0.06 C 28.537 0.09 28.437 0.08 30.496 0.58 C 30.856 0.67 31.296 0.8 31.486 0.88 C 31.666 0.96 31.885 1.02 31.975 1.02 C 32.055 1.02 32.415 1.16 32.765 1.319 C 33.105 1.489 33.435 1.619 33.495 1.619 C 33.545 1.619 33.735 1.709 33.915 1.819 C 34.095 1.929 34.354 2.019 34.484 2.019 C 34.684 2.019 34.924 2.169 35.494 2.649 C 35.889 3.222 35.746 3.159 36.136 2.869 C 36.435 2.639 39.172 5.271 38.992 5.361 C 38.692 5.501 42.291 9.866 42.291 10.156 C 42.291 10.276 42.481 10.666 43.011 11.635 C 43.161 11.895 43.351 12.425 43.451 12.815 C 43.551 13.194 43.87 14.493 43.79 14.613 C 43.71 14.733 44.467 18.463 44.317 18.673 C 43.987 19.133 44.32 19.612 44.58 19.852 C 44.69 19.952 44.83 20.172 44.9 20.341 C 44.97 20.521 45.19 20.851 45.38 21.081 C 45.58 21.311 45.86 21.641 46.019 21.811 C 46.169 21.991 46.289 22.151 46.289 22.181 C 46.289 22.261 46.739 22.85 46.969 23.07 C 47.089 23.19 47.189 23.33 47.189 23.39 C 47.189 23.45 47.299 23.62 47.439 23.77 C 47.579 23.92 47.689 24.11 47.689 24.19 C 47.689 24.27 47.769 24.41 47.869 24.5 C 48.059 24.68 48.518 25.469 48.758 26.039 C 48.848 26.239 48.958 26.409 49.008 26.409 C 49.048 26.409 49.088 26.499 49.088 26.609 C 49.088 26.709 49.148 26.949 49.228 27.129 C 49.308 27.309 49.438 27.618 49.528 27.818 C 50.008 28.928 50.118 31.687 49.718 32.756 C 49.518 33.276 48.568 34.376 47.459 35.355 C 47.089 35.685 46.689 36.035 46.589 36.135 C 46.479 36.225 46.349 36.305 46.289 36.305 C 46.239 36.305 46.189 36.345 46.189 36.385 C 46.189 36.425 46.029 36.525 45.84 36.595 C 45.65 36.665 45.49 36.765 45.49 36.824 C 45.49 36.874 45.42 36.894 45.33 36.864 C 45.23 36.824 45.08 36.874 44.97 36.974 C 44.8 37.124 44.54 37.164 43.401 37.194 C 41.921 37.234 39.492 37.034 39.492 36.884 C 39.492 36.824 39.382 36.815 39.242 36.844 C 39.102 36.884 38.992 36.874 38.992 36.824 C 38.992 36.785 38.663 36.685 38.263 36.625 C 37.853 36.555 37.483 36.465 37.433 36.415 C 37.383 36.365 37.013 36.255 36.623 36.145 C 36.224 36.045 35.894 35.935 35.894 35.905 C 35.894 35.865 35.614 35.755 35.274 35.655 C 34.924 35.545 34.614 35.425 34.584 35.375 C 34.554 35.325 34.494 35.355 34.464 35.445 C 34.424 35.535 34.334 35.605 34.254 35.605 C 34.164 35.605 33.835 35.745 33.515 35.905 C 33.185 36.075 32.855 36.205 32.775 36.205 C 32.705 36.205 32.555 36.265 32.445 36.335 C 32.215 36.485 31.696 36.655 31.196 36.755 C 31.006 36.795 30.796 36.864 30.746 36.904 C 30.626 37.004 29.097 37.314 28.647 37.334 C 28.487 37.344 28.317 37.384 28.287 37.434 C 28.227 37.524 24.619 37.614 23.749 37.544 L 23.749 37.544 Z  M 42.861 31.497 C 43.071 31.447 43.401 31.407 43.601 31.407 C 44.27 31.407 44.92 30.337 45.05 29.058 C 45.07 28.788 45.12 28.418 45.14 28.248 C 45.19 27.938 45.06 27.418 44.9 27.309 C 44.86 27.279 44.67 26.879 44.49 26.409 C 44.12 25.449 43.93 25.059 43.68 24.73 C 43.511 24.51 43.511 24.51 43.391 25.029 C 43.211 25.819 41.461 29.228 40.952 29.797 C 40.862 29.897 40.792 29.997 40.792 30.037 C 40.792 30.167 39.762 31.507 39.652 31.527 C 39.592 31.537 39.792 31.577 40.092 31.607 C 40.722 31.697 42.291 31.627 42.861 31.497 Z " fill="rgb(63,74,138)"/><path d=" M 24.473 37.537 C 24.583 37.437 28.314 37.327 28.314 37.427 C 28.314 37.517 26.744 37.627 25.424 37.627 C 24.803 37.627 24.413 37.587 24.473 37.537 Z  M 22.513 37.427 C 22.283 37.357 22.293 37.347 22.613 37.347 C 22.803 37.337 23.143 37.377 23.363 37.417 L 23.763 37.507 L 23.263 37.507 C 22.993 37.507 22.653 37.467 22.513 37.427 Z  M 28.514 37.357 C 28.514 37.257 29.734 36.927 30.094 36.927 C 30.214 36.927 30.324 36.887 30.354 36.837 C 30.384 36.797 30.695 36.697 31.035 36.627 C 31.385 36.557 31.955 36.387 32.315 36.257 C 33.035 35.977 34.515 35.247 34.515 35.177 C 34.515 35.146 34.005 34.876 33.395 34.566 C 32.005 33.876 31.235 33.426 30.484 32.856 C 29.964 32.456 29.924 32.396 30.034 32.196 C 30.184 31.896 31.285 30.456 31.415 30.376 C 31.475 30.336 31.825 30.486 32.195 30.706 C 34.615 32.146 36.606 33.106 38.496 33.766 C 43.547 35.517 46.567 35.577 48.458 33.966 C 48.668 33.786 48.878 33.656 48.918 33.676 C 48.958 33.696 49.048 33.596 49.128 33.446 C 49.198 33.296 49.348 33.056 49.448 32.896 C 49.738 32.476 49.828 32.066 49.908 30.826 L 49.988 29.675 L 49.998 30.526 C 50.018 31.626 49.878 32.596 49.658 32.836 C 49.568 32.936 49.528 33.026 49.578 33.026 C 49.628 33.026 49.588 33.076 49.498 33.136 C 49.398 33.186 49.318 33.316 49.318 33.416 C 49.318 33.596 48.928 34.026 48.768 34.026 C 48.718 34.026 48.228 34.476 47.678 35.026 C 47.118 35.577 46.497 36.157 46.287 36.317 C 45.707 36.767 44.427 37.117 43.067 37.197 C 42.217 37.247 39.716 37.047 39.716 36.927 C 39.716 36.897 39.256 36.787 38.696 36.687 C 37.746 36.527 37.446 36.447 36.996 36.217 C 36.896 36.167 36.726 36.127 36.606 36.127 C 36.486 36.127 36.246 36.047 36.076 35.937 C 35.905 35.837 35.555 35.697 35.295 35.617 C 35.025 35.547 34.815 35.447 34.815 35.407 C 34.815 35.257 34.595 35.327 34.015 35.667 C 33.685 35.857 33.205 36.087 32.945 36.177 C 32.685 36.267 32.425 36.377 32.365 36.417 C 32.235 36.507 31.655 36.697 31.215 36.777 C 31.025 36.817 30.815 36.887 30.765 36.927 C 30.705 36.977 30.304 37.077 29.864 37.167 C 29.424 37.247 28.944 37.347 28.794 37.387 C 28.634 37.417 28.514 37.407 28.514 37.357 L 28.514 37.357 Z  M 14.432 34.106 C 12.671 32.776 12.031 32.176 11.141 31.026 C 10.911 30.726 10.581 30.326 10.421 30.136 C 10.261 29.946 10.071 29.675 10.001 29.535 C 9.921 29.395 9.761 29.135 9.641 28.965 C 9.401 28.645 9.361 28.525 9.491 28.525 C 9.531 28.525 9.741 28.805 9.961 29.155 C 11.181 31.076 13.151 33.106 14.892 34.256 C 15.202 34.456 15.382 34.626 15.292 34.626 C 15.212 34.626 14.822 34.386 14.432 34.106 Z  M 18.072 29.675 C 17.192 27.805 15.172 29.078 15.192 29.058 C 15.212 29.038 16.272 25.745 17.382 25.195 C 20.227 25.418 18.622 24.665 18.692 24.755 C 18.822 24.925 25.911 28.638 21.783 28.965 C 22.393 30.235 20.113 32.496 20.113 32.596 C 20.113 32.696 18.072 33.726 17.872 33.726 C 17.802 33.726 18.122 29.795 18.072 29.675 Z  M 48.918 26.775 C 48.918 26.695 48.968 26.625 49.018 26.625 C 49.078 26.625 49.118 26.695 49.118 26.775 C 49.118 26.855 49.078 26.925 49.018 26.925 C 48.968 26.925 48.918 26.855 48.918 26.775 Z  M 48.568 26.325 C 48.538 26.275 48.528 26.185 48.568 26.135 C 48.598 26.085 48.578 26.015 48.518 25.975 C 48.461 25.936 48.425 25.874 48.418 25.805 C 48.418 25.745 48.508 25.815 48.618 25.955 C 48.728 26.095 48.818 26.255 48.818 26.315 C 48.818 26.455 48.648 26.455 48.568 26.325 Z  M 12.691 24.725 C 12.351 24.114 12.351 24.054 12.661 23.804 C 12.801 23.694 12.911 23.524 12.911 23.414 C 12.911 23.294 14.703 21.924 13.993 20.454 L 14.932 16.323 C 15.302 16.083 15.642 19.054 15.752 19.494 C 15.802 19.714 19.032 22.114 17.972 22.644 Q 17.233 21.043 15.752 21.834 C 15.292 22.084 13.041 25.185 13.011 25.195 C 12.981 25.215 12.841 24.995 12.691 24.725 Z  M 33.645 24.545 C 33.275 24.004 33.245 23.844 33.465 23.764 C 33.555 23.724 33.665 23.614 33.715 23.524 C 33.815 23.334 32.665 18.242 32.665 18.212 C 32.665 18.182 32.345 16.603 32.805 16.323 C 36.365 14.113 35.425 14.923 35.505 14.973 C 35.615 15.033 35.336 16.222 36.996 18.673 C 38.106 20.323 39.146 21.894 38.626 22.204 L 36.996 20.454 Q 34.584 18.493 34.584 18.883 C 34.584 19.173 34.045 25.025 33.995 25.025 C 33.867 24.873 33.75 24.713 33.645 24.545 Z  M 47.688 24.605 C 47.378 24.184 47.218 23.744 47.508 24.114 C 47.758 24.445 48.038 24.925 47.978 24.925 C 47.948 24.925 47.818 24.775 47.688 24.605 Z  M 46.768 23.334 C 46.798 23.284 46.687 23.094 46.517 22.914 C 46.357 22.724 46.217 22.544 46.217 22.504 C 46.217 22.464 46.047 22.194 45.847 21.914 C 45.647 21.624 45.537 21.414 45.617 21.444 C 45.697 21.464 45.907 21.714 46.087 21.984 C 46.267 22.254 46.547 22.654 46.717 22.884 C 47.058 23.354 47.078 23.424 46.858 23.424 C 46.778 23.424 46.727 23.384 46.768 23.334 Z  M 19.562 21.724 C 19.462 21.564 18.912 13.242 18.912 13.192 C 18.912 13.152 18.732 12.812 18.512 12.452 C 18.292 12.082 18.112 11.712 18.112 11.612 C 18.112 11.522 18.022 11.332 17.912 11.192 C 17.692 10.912 17.652 10.412 17.762 9.302 C 17.822 8.732 17.802 8.572 17.612 8.202 C 17.272 7.501 17.352 7.241 18.072 6.771 C 18.622 6.411 19.312 5.711 19.993 4.831 C 20.203 4.551 20.243 4.541 20.793 4.591 C 21.483 4.651 21.873 4.951 21.783 5.341 C 21.683 5.721 21.293 6.241 20.913 6.501 C 20.553 6.741 20.443 6.771 19.693 6.871 C 19.172 6.941 18.582 7.281 18.532 7.551 C 18.512 7.651 18.742 8.142 19.052 8.652 C 19.753 9.802 19.873 10.152 19.723 10.482 C 19.442 11.092 19.682 11.822 20.323 12.352 C 20.563 12.542 20.873 12.892 21.013 13.112 C 21.153 13.332 21.463 13.182 21.593 12.772 C 21.713 12.362 21.853 12.022 21.903 12.022 C 21.953 12.022 21.973 12.112 21.943 12.222 C 21.913 12.332 21.943 12.562 22.013 12.722 C 22.113 12.962 22.113 13.082 22.013 13.312 C 21.793 13.863 24.313 16.663 23.703 17.003 L 21.593 17.003 L 20.933 21.084 C 20.343 21.404 19.813 21.694 19.743 21.744 C 19.672 21.794 19.602 21.794 19.562 21.724 Z  M 18.332 10.592 C 18.142 10.152 17.912 9.902 17.912 10.122 C 17.912 10.242 18.182 10.802 18.342 11.002 C 18.532 11.242 18.532 11.042 18.332 10.592 Z  M 45.107 20.984 C 44.447 20.334 44.317 20.084 44.317 19.494 C 44.317 19.094 44.357 18.934 44.467 18.883 C 44.637 18.823 44.677 18.974 44.517 19.074 C 44.367 19.164 44.397 19.634 44.567 19.924 C 44.647 20.064 44.737 20.244 44.777 20.324 C 44.817 20.404 45.007 20.644 45.197 20.844 C 45.647 21.324 45.567 21.434 45.107 20.984 Z  M 40.792 16.353 C 39.482 14.713 36.066 14.673 36.066 14.613 C 36.066 14.473 39.672 13.764 40.092 14.314 C 40.512 14.864 40.512 14.284 40.952 14.014 C 42.293 13.184 43.518 19.194 42.807 19.604 L 40.856 20.724 L 40.792 16.353 L 40.792 16.353 Z " fill="rgb(224,224,220)"/><path d=" M 22.603 10.982 C 22.873 10.682 23.153 10.342 23.213 10.222 C 23.273 10.112 23.383 10.032 23.453 10.042 C 23.653 10.092 24.123 9.462 24.223 9.022 C 24.333 8.542 24.253 8.142 23.823 7.091 C 23.463 6.181 23.453 6.071 23.703 5.681 C 23.813 5.511 23.883 5.351 23.863 5.321 C 23.793 5.211 24.633 4.991 24.703 5.091 C 24.733 5.141 24.923 5.251 25.114 5.321 C 25.304 5.401 25.984 5.961 26.614 6.571 C 28.334 8.222 28.724 8.141 29.354 7.791 C 30.734 7.021 30.625 6.991 30.765 6.871 C 30.915 6.751 31.315 8.172 31.315 8.222 C 31.315 8.272 31.475 8.562 31.665 8.862 L 32.015 9.412 L 35.274 9.406 C 35.654 9.196 34.464 10.182 34.254 10.312 L 32.805 10.732 L 33.025 11.102 C 33.145 11.302 33.355 11.622 33.485 11.802 L 33.725 12.122 L 34.565 11.662 L 35.415 11.212 Q 34.075 14.043 33.835 14.133 C 33.725 14.173 32.085 14.733 31.945 14.503 C 31.835 14.323 31.435 13.683 31.065 13.072 C 30.695 12.472 30.945 11.142 30.615 10.592 C 29.325 8.462 28.104 8.282 28.004 8.432 C 27.824 8.712 28.564 10.442 28.754 10.842 C 28.934 11.242 28.824 13.684 28.794 13.664 C 28.754 13.644 27.297 13.693 27.134 15.183 C 28.054 16.793 25.023 15.513 24.963 15.643 C 24.913 15.773 22.333 11.282 22.603 10.982 Z " fill="rgb(224,224,220)"/><path d=" M 4.71 17.003 C 4.71 16.933 4.57 16.813 4.41 16.733 C 3.96 16.543 1.589 13.733 1.189 12.932 C 1.009 12.572 0.739 12.082 0.589 11.862 C 0.169 11.232 -0.021 10.162 0.029 8.632 C 0.069 7.541 0.109 7.301 0.329 6.821 C 0.469 6.521 0.709 5.941 0.869 5.531 C 1.209 4.671 2.129 3.581 2.589 3.491 C 2.879 3.441 3.449 3.251 3.73 3.111 C 3.83 3.061 4.06 3.021 4.25 3.021 C 4.44 3.021 4.72 2.971 4.88 2.911 C 5.78 2.56 10.321 2.781 12.761 3.281 C 14.442 3.631 14.241 3.641 14.932 3.151 C 15.812 2.53 18.162 1.4 19.412 0.99 C 20.723 0.56 21.583 0.31 21.683 0.34 C 21.723 0.35 21.913 0.32 22.093 0.28 C 22.283 0.24 22.553 0.18 22.693 0.15 C 22.843 0.12 24.003 0.08 25.284 0.05 C 27.664 0.01 28.394 0.07 30.114 0.48 C 30.825 0.65 32.505 1.2 32.665 1.31 C 32.725 1.35 32.965 1.45 33.215 1.52 C 33.465 1.6 33.805 1.74 33.965 1.84 C 34.135 1.94 34.375 2.02 34.505 2.02 C 34.725 2.02 34.945 2.16 35.705 2.831 C 36.116 3.181 36.906 4.751 36.886 4.791 C 36.856 4.841 37.662 5.181 38.172 5.981 C 38.315 6.203 38.638 6.622 38.766 6.821 C 40.212 9.07 38.436 9.069 38.436 9.152 C 38.436 9.282 38.006 11.442 37.866 11.392 C 37.806 11.362 37.766 8.451 36.886 7.091 C 36.015 5.73 34.515 6.381 34.455 6.351 C 34.395 6.331 31.665 5.891 31.665 5.771 C 31.665 5.661 33.195 5.731 34.715 4.831 C 35.245 4.531 35.775 3.551 35.905 3.451 L 36.136 3.261 L 35.485 2.931 C 34.955 2.66 34.755 2.61 34.465 2.66 C 34.195 2.711 34.045 2.68 33.835 2.54 C 33.685 2.43 33.335 2.32 33.045 2.29 C 32.765 2.26 32.315 2.14 32.045 2.03 C 31.785 1.91 30.945 1.71 30.194 1.57 C 29.004 1.35 28.534 1.32 26.744 1.32 C 25.604 1.32 24.603 1.36 24.523 1.41 C 24.423 1.48 24.293 1.44 24.133 1.31 C 23.973 1.2 23.787 1.135 23.593 1.12 L 23.293 1.12 L 23.613 1.38 C 23.873 1.6 23.923 1.71 23.893 2.01 C 23.873 2.28 23.783 2.41 23.523 2.59 C 23.283 2.751 23.143 2.791 23.073 2.721 C 23.023 2.67 22.603 2.62 22.143 2.62 C 21.503 2.62 21.163 2.68 20.653 2.871 C 20.293 3.011 19.803 3.121 19.572 3.121 L 19.162 3.121 L 19.542 3.481 C 20.053 3.961 20.033 4.421 19.502 4.391 C 19.322 4.371 19.252 4.321 19.282 4.211 C 19.312 4.101 19.202 4.021 18.902 3.931 C 18.482 3.801 18.402 3.831 18.282 4.161 C 18.222 4.331 18.042 4.131 17.982 3.831 C 17.942 3.651 17.982 3.381 18.062 3.171 L 18.212 2.821 L 17.922 2.821 C 17.552 2.821 17.302 2.721 17.372 2.61 C 17.472 2.45 17.172 2.52 16.912 2.721 C 16.602 2.961 16.522 2.971 16.362 2.751 C 16.242 2.59 16.202 2.6 15.752 2.821 C 15.482 2.961 15.112 3.191 14.932 3.351 C 14.752 3.501 14.462 3.681 14.282 3.761 C 14.101 3.831 13.341 4.531 12.591 5.311 L 11.211 6.721 L 10.611 6.721 C 9.831 6.721 8.25 6.891 7.37 7.081 C 6.29 7.311 5.11 7.911 4.37 8.622 C 3.71 9.252 3.61 9.312 3.61 9.082 C 3.61 9.002 3.52 8.752 3.419 8.522 C 3.229 8.101 3.229 8.081 3.419 7.391 C 3.69 6.431 3.82 6.151 4.35 5.361 C 4.85 4.621 4.9 4.421 4.65 4.211 C 4.56 4.131 4.38 3.901 4.25 3.701 C 4.03 3.361 3.98 3.331 3.69 3.391 C 3.059 3.511 2.319 3.941 1.809 4.481 C 1.349 4.961 0.919 5.691 0.909 5.981 C 0.909 6.131 1.339 6.621 1.469 6.621 C 1.579 6.621 1.809 7.261 1.809 7.531 C 1.809 7.921 2.379 9.662 2.579 9.882 C 2.709 10.022 2.809 10.172 2.809 10.222 C 2.809 10.352 3.229 10.622 3.429 10.622 C 3.54 10.622 3.58 10.572 3.55 10.472 C 3.51 10.392 3.53 10.322 3.59 10.322 C 3.64 10.322 3.71 10.512 3.74 10.732 C 3.77 10.962 3.83 11.182 3.88 11.212 C 4.03 11.322 4.21 11.822 4.21 12.152 C 4.22 12.502 4.71 13.292 4.9 13.252 C 4.96 13.232 5.01 13.272 5.01 13.332 C 5.01 13.392 5.21 13.623 5.44 13.853 C 5.83 14.223 5.88 14.333 5.9 14.743 C 5.92 15.213 5.89 15.303 5.27 16.623 C 5.07 17.043 4.71 17.293 4.71 17.003 Z  M 43.327 12.812 C 43.277 12.682 43.127 12.282 42.977 11.932 C 42.687 11.212 42.677 11.192 42.807 11.262 C 42.927 11.342 43.257 12.042 43.417 12.552 C 43.547 12.972 43.477 13.192 43.327 12.812 Z " fill="rgb(224,224,220)"/><path d=" M 17.382 12.852 C 17.342 12.822 17.312 12.622 17.312 12.412 C 17.312 12.202 17.252 11.992 17.182 11.952 C 16.882 11.772 16.672 11.302 16.702 10.842 C 16.712 10.582 16.772 10.352 16.822 10.312 C 16.872 10.282 16.892 10.172 16.852 10.072 C 16.802 9.942 16.822 9.912 16.922 9.942 C 17.002 9.972 17.052 10.102 17.032 10.252 C 17.022 10.402 17.112 10.892 17.252 11.342 C 17.632 12.642 17.682 13.152 17.382 12.852 Z  M 7.92 12.302 C 7.91 12.072 8.01 11.822 8.13 11.822 C 8.2 11.822 8.2 11.862 8.13 11.952 C 8.08 12.012 8.01 12.162 7.98 12.272 C 7.95 12.422 7.93 12.432 7.92 12.302 Z  M 8.2 11.442 C 8.36 11.142 8.53 11.062 8.42 11.332 C 8.38 11.462 8.28 11.582 8.22 11.602 C 8.12 11.632 8.12 11.602 8.2 11.442 Z  M 8.51 10.902 C 8.51 10.722 9.011 9.992 9.091 10.062 C 9.121 10.102 9.051 10.262 8.931 10.422 C 8.81 10.582 8.71 10.762 8.71 10.812 C 8.71 10.862 8.67 10.942 8.61 10.972 C 8.56 11.002 8.51 10.972 8.51 10.902 Z  M 42.187 10.052 C 42.157 10.012 39.726 6.611 39.806 6.501 C 39.906 6.371 42.417 9.622 42.417 9.732 C 42.417 9.932 42.257 10.162 42.187 10.052 Z  M 16.622 9.602 C 16.612 9.462 16.582 9.272 16.552 9.182 C 16.512 9.082 16.552 9.042 16.692 9.052 C 16.892 9.062 16.892 9.082 16.682 9.722 C 16.652 9.802 16.622 9.752 16.622 9.602 Z  M 4.31 9.352 C 4.31 9.232 4.69 8.872 4.76 8.942 C 4.79 8.962 4.7 9.092 4.56 9.222 C 4.42 9.352 4.31 9.412 4.31 9.352 Z  M 9.411 9.282 C 9.411 9.252 9.551 9.032 9.711 8.792 C 9.881 8.542 10.011 8.312 10.011 8.272 C 10.011 8.182 10.321 7.931 10.431 7.921 C 10.511 7.921 9.611 9.262 9.501 9.302 C 9.451 9.322 9.411 9.312 9.411 9.282 Z  M 15.842 8.442 C 15.822 8.091 15.822 8.081 15.962 8.262 C 16.142 8.502 16.152 8.572 15.992 8.702 C 15.892 8.782 15.852 8.722 15.842 8.442 Z  M 7.41 7.621 C 7.61 7.491 7.84 7.491 7.76 7.621 C 7.73 7.681 7.6 7.721 7.48 7.721 C 7.3 7.721 7.29 7.701 7.41 7.621 Z  M 9.791 7.551 C 9.041 7.491 9.231 7.321 10.041 7.321 C 10.691 7.331 10.741 7.341 10.571 7.471 C 10.461 7.551 10.351 7.611 10.321 7.601 C 10.291 7.591 10.051 7.571 9.791 7.551 Z  M 38.326 4.981 C 38.046 4.691 38.006 4.591 38.066 4.351 C 38.136 4.081 38.146 4.081 38.436 4.661 C 38.596 4.981 38.716 5.261 38.686 5.281 C 38.666 5.301 38.506 5.161 38.326 4.981 Z  M 20.513 3.861 C 20.513 3.801 20.343 3.681 20.143 3.581 C 19.853 3.441 19.803 3.381 19.923 3.311 C 20.003 3.261 20.183 3.221 20.333 3.221 C 20.543 3.221 20.623 3.281 20.673 3.481 C 20.713 3.621 20.693 3.781 20.623 3.851 C 20.553 3.921 20.513 3.921 20.513 3.861 Z " fill="rgb(224,224,220)"/><path d=" M 11.084 33.136 L 17.612 37.627 C 19.954 38.685 24.251 39.444 27.134 39 C 31.25 38.375 33.799 37.461 34.815 36.884 C 36.258 36.766 37.5 37.063 39.492 38 C 34.047 44.539 29.255 52.869 26.054 60.929 C 23.273 52.573 18.303 43.329 11.084 33.136 Z " fill="rgb(63,74,138)"/><path d=" M 35.274 39 C 36.906 38.989 36.789 39.321 36.996 39.937 C 33.213 44.245 29.337 50.286 26.054 58 L 24.223 43 C 23.977 41.927 25.865 40.603 29.209 41 C 31.047 39.891 33.761 39.235 35.274 39 Z " fill="rgb(224,224,220)"/></g></svg>