<svg xmlns="http://www.w3.org/2000/svg" viewBox="0 0 50 37.6"><path fill="#3F4A8A" d="M23.749 37.544c-.87-.06-2.079-.25-2.849-.46-.41-.11-.91-.24-1.099-.279-.73-.17-2.25-.85-3.199-1.43-.19-.12-.41-.22-.49-.24-.21-.03-.81-.36-.81-.45 0-.05-.05-.08-.11-.08-.059 0-.249-.11-.429-.249-.18-.14-.35-.25-.38-.25-.03 0-.21-.14-.39-.32-.19-.17-.61-.53-.94-.79-.659-.52-1.279-1.159-1.919-1.989-.23-.3-.56-.7-.72-.89a3.996 3.996 0 0 1-.419-.599c-.08-.14-.23-.39-.35-.56-.12-.16-.25-.45-.29-.62-.03-.18-.11-.33-.16-.33-.1 0-.76.32-1.529.74-.57.31-.79.27-.96-.17-.07-.18-.25-.59-.4-.92-.16-.33-.34-.759-.4-.949-.14-.38-.369-.93-.769-1.799-.14-.3-.29-.64-.33-.75l-.38-.85c-.16-.36-.35-.829-.42-1.049-.07-.22-.16-.44-.2-.5-.04-.05-.11-.28-.14-.5-.07-.4-.06-.41.32-.58.21-.09.44-.17.51-.17.06 0 .29-.11.51-.25.22-.139.59-.319.819-.419.77-.29.88-.46.88-1.33 0-.42.02-.789.05-.819.03-.03.07-.63.09-1.34.03-1.099.08-1.399.31-2.039.28-.77.42-1.14.54-1.399.04-.08.16-.48.26-.87.099-.4.219-.73.269-.73.08 0 .78-1.409.78-1.589 0-.06.06-.11.14-.11.08 0 .18-.09.21-.21.04-.11.2-.4.36-.64.16-.24.29-.45.29-.479 0-.04.12-.18.27-.33.259-.26.259-.28.08-.35-.31-.12-1.92-.1-2.589.02-1.02.19-2.209.729-2.829 1.279-1.02.91-1.22 1.58-.82 2.759.22.66.99 1.849 1.19 1.849.05 0 .1.07.1.15 0 .08.1.24.23.35.319.28.359 1.04.079 1.629-.389.84-.509 1.15-.509 1.31 0 .31-.45.17-.98-.31-.91-.84-2.699-3.039-3.039-3.728-.18-.36-.449-.84-.599-1.06-.59-.89-.78-3.339-.37-4.858.12-.43.25-.78.29-.78.04 0 .11-.15.14-.339.04-.18.15-.44.259-.56.11-.13.2-.29.2-.36 0-.24 1.19-1.409 1.48-1.469.29-.05.859-.24 1.139-.38.1-.05.33-.09.52-.09s.47-.05.63-.11c.41-.16 3.318-.22 4.428-.1.52.06 1.329.16 1.799.21.47.05 1.21.17 1.65.26 1.679.349 1.479.359 2.169-.13.349-.24 1.279-.75 2.079-1.14.799-.38 1.579-.76 1.729-.839.16-.08.35-.15.43-.15.09 0 .25-.05.37-.12.12-.06.31-.12.419-.14.11-.01.52-.12.9-.24.39-.12.86-.24 1.05-.26.19-.03.439-.09.549-.14.11-.05 1.49-.08 3.099-.06 2.989.03 2.889.02 4.948.52.36.09.8.22.99.3.18.08.399.14.489.14.08 0 .44.14.79.299.34.17.67.3.73.3.05 0 .24.09.42.2.18.11.439.2.569.2.2 0 .44.15 1.01.63.62.52.57.51.96.22.299-.23.429-.27.789-.22.42.04.46.02.82-.39.21-.24.44-.44.51-.44.06 0 .12-.04.12-.09 0-.05.209-.19.459-.31.25-.13.48-.289.51-.359.03-.08.11-.14.18-.14.08 0 .26-.13.42-.29.39-.39.85-.61 1.249-.6.28.01.42.11.93.69.33.38.64.689.69.689.09.01.829.71 3.338 3.149l.92.9v.509c0 .71-.16.85-1.999 1.78-.97.49-1.889 1.059-2.089 1.309-.08.09-.28.23-.46.32-.3.14-.55.49-.55.78 0 .12.19.51.72 1.479.15.26.34.79.44 1.18.1.379.219.699.259.699.04 0 .08.11.08.25 0 .16.26.57.75 1.18.41.499.75.979.75 1.049 0 .06.04.12.09.12.15 0 .35 1.1.22 1.23-.06.06-.11.17-.11.25 0 .07-.06.19-.12.259-.07.08-.2.24-.28.36-.08.12-.27.4-.42.61-.33.46-.35.79-.09 1.03.11.1.25.32.32.489.07.18.29.51.48.74.2.23.48.56.639.73.15.18.27.34.27.37 0 .08.45.669.68.889.12.12.22.26.22.32s.11.23.25.38.25.34.25.42c0 .08.08.22.18.31.19.18.649.969.889 1.539.09.2.2.37.25.37.04 0 .08.09.08.2 0 .1.06.34.14.52.08.18.21.489.3.689.48 1.11.59 3.869.19 4.938-.2.52-1.15 1.62-2.259 2.599-.37.33-.77.68-.87.78-.11.09-.24.17-.3.17-.05 0-.1.04-.1.08s-.16.14-.349.21c-.19.07-.35.17-.35.229 0 .05-.07.07-.16.04-.1-.04-.25.01-.36.11-.17.15-.43.19-1.569.22-1.48.04-3.909-.16-3.909-.31 0-.06-.11-.069-.25-.04-.14.04-.25.03-.25-.02 0-.039-.329-.139-.729-.199-.41-.07-.78-.16-.83-.21-.05-.05-.42-.16-.81-.27-.399-.1-.729-.21-.729-.24 0-.04-.28-.15-.62-.25-.35-.11-.66-.23-.69-.28-.03-.05-.09-.02-.12.07-.04.09-.13.16-.21.16-.09 0-.419.14-.739.3-.33.17-.66.3-.74.3-.07 0-.22.06-.33.13-.23.15-.749.32-1.249.42-.19.04-.4.109-.45.149-.12.1-1.649.41-2.099.43-.16.01-.33.05-.36.1-.06.09-3.668.18-4.538.11zm19.112-6.047c.21-.05.54-.09.74-.09.669 0 1.319-1.07 1.449-2.349.02-.27.07-.64.09-.81.05-.31-.08-.83-.24-.939-.04-.03-.23-.43-.41-.9-.37-.96-.56-1.35-.81-1.679-.169-.22-.169-.22-.289.299-.18.79-1.93 4.199-2.439 4.768-.09.1-.16.2-.16.24 0 .13-1.03 1.47-1.14 1.49-.06.01.14.05.44.08.63.09 2.199.02 2.769-.11z"/><path fill="#E0E0DC" d="M24.473 37.537c.11-.1 3.841-.21 3.841-.11 0 .09-1.57.2-2.89.2-.621 0-1.011-.04-.951-.09zM22.513 37.427c-.23-.07-.22-.08.1-.08.19-.01.53.03.75.07l.4.09h-.5c-.27 0-.61-.04-.75-.08zM28.514 37.357c0-.1 1.22-.43 1.58-.43.12 0 .23-.04.26-.09.03-.04.341-.14.681-.21.35-.07.92-.24 1.28-.37.72-.28 2.2-1.01 2.2-1.08 0-.031-.51-.301-1.12-.611-1.39-.69-2.16-1.14-2.911-1.71-.52-.4-.56-.46-.45-.66.15-.3 1.251-1.74 1.381-1.82.06-.04.41.11.78.33 2.42 1.44 4.411 2.4 6.301 3.06 5.051 1.751 8.071 1.811 9.962.2.21-.18.42-.31.46-.29.04.02.13-.08.21-.23.07-.15.22-.39.32-.55.29-.42.38-.83.46-2.07l.08-1.151.01.851c.02 1.1-.12 2.07-.34 2.31-.09.1-.13.19-.08.19s.01.05-.08.11c-.1.05-.18.18-.18.28 0 .18-.39.61-.55.61-.05 0-.54.45-1.09 1-.56.551-1.181 1.131-1.391 1.291-.58.45-1.86.8-3.22.88-.85.05-3.351-.15-3.351-.27 0-.03-.46-.14-1.02-.24-.95-.16-1.25-.24-1.7-.47-.1-.05-.27-.09-.39-.09s-.36-.08-.53-.19c-.171-.1-.521-.24-.781-.32-.27-.07-.48-.17-.48-.21 0-.15-.22-.08-.8.26-.33.19-.81.42-1.07.51-.26.09-.52.2-.58.24-.13.09-.71.28-1.15.36-.19.04-.4.11-.45.15-.06.05-.461.15-.901.24-.44.08-.92.18-1.07.22-.16.03-.28.02-.28-.03zM14.432 34.106c-1.761-1.33-2.401-1.93-3.291-3.08-.23-.3-.56-.7-.72-.89-.16-.19-.35-.461-.42-.601-.08-.14-.24-.4-.36-.57-.24-.32-.28-.44-.15-.44.04 0 .25.28.47.63 1.22 1.921 3.19 3.951 4.931 5.101.31.2.49.37.4.37-.08 0-.47-.24-.86-.52zM17.642 33.506c-.88-1.87-3.13-6.811-3.11-6.831.02-.02.94-.48 2.05-1.03 1.5-.76 2.04-.98 2.11-.89.13.17.52 1.07.52 1.21 0 .07-.36.3-.8.51-.44.21-.8.44-.8.5s.18.49.41.96c.61 1.27 2.091 4.561 2.091 4.661 0 .1-2.041 1.13-2.241 1.13-.07 0-.18-.1-.23-.22z"/><path fill="#E0E0DC" d="M39.796 31.656c.18-.02.45-.02.6 0 .15.02 0 .04-.33.04s-.45-.02-.27-.04zM43.157 31.516c-.03-.05.06-.09.2-.09.31 0 .34.06.06.13-.11.03-.23.01-.26-.04zM39.806 31.286c.14-.14.27-.26.29-.26.1 0-.26.44-.39.48-.08.03-.03-.07.1-.22zM21.433 29.255c-2.141-4.04-2.441-4.64-2.391-4.76.07-.181 2.541-1.491 3.421-1.831.92-.34 1.43-.3 1.91.17.43.42 1.241 2.001 1.241 2.431 0 .59-.601 1.24-1.631 1.77-.21.11-.4.25-.43.32-.02.07.27.7.65 1.41.39.72.68 1.331.65 1.371-.06.1-2.09 1.19-2.22 1.19-.05 0-.59-.93-1.2-2.071zm1.82-3.42c.17-.19.17-.22-.07-.74-.36-.791-.58-.991-.97-.861-.16.06-.3.131-.3.171 0 .07.7 1.33.83 1.5.14.17.31.15.51-.07zM44.287 31.266c-.04-.04.01-.17.12-.28.27-.29.61-1.301.67-1.961.03-.3.07-.66.1-.79.06-.26-.13-.91-.26-.91-.05 0-.12-.16-.16-.35-.03-.19-.09-.35-.13-.35-.04 0-.16-.26-.27-.57-.1-.32-.33-.81-.51-1.09s-.33-.59-.33-.681c0-.09.1-.56.22-1.06.25-1.06.34-1.1 1.11-.4.93.85 1.47 1.791 1.82 3.181.481 1.88.291 3.22-.59 4.191-.29.32-.43.4-.73.41-.3.01-.44.08-.68.37-.17.2-.34.33-.38.29zM49.668 28.955c-.22-.61-.3-1.13-.18-1.13.11 0 .49 1.48.41 1.56-.03.02-.13-.17-.23-.43zM6.86 28.865c-.09-.09-.14-.18-.12-.2.05-.06.57.2.57.29 0 .13-.28.07-.45-.09zM7.65 28.675c.11-.08.25-.15.3-.15.06 0 .02.07-.08.15-.11.08-.25.15-.3.15-.06 0-.02-.07.08-.15zM27.844 27.505c-.64-.99-3.531-5.801-3.531-5.881 0-.12 1.841-1.1 1.921-1.02.04.04.44.68.88 1.41.55.92.8 1.26.8 1.09 0-.13-.09-.89-.2-1.68-.11-.79-.2-1.49-.2-1.56 0-.12 1.62-1.141 1.81-1.141.04 0 .26.261.47.581.68 1.01 3.651 6.021 3.601 6.071-.14.14-1.83 1.03-1.88 1-.04-.02-.44-.65-.9-1.4-.461-.741-.851-1.341-.861-1.321-.1.1.32 1.921.57 2.491.351.79.371 1.18.08 1.36-.19.12-.2.11-.14-.07.03-.12.05-.21.02-.21-.02 0-.44.22-.93.5-.49.27-.92.5-.97.5-.04 0-.28-.32-.54-.72zM6.47 27.475c-.16-.36-.35-.65-.42-.65s-.16-.1-.19-.22c-.07-.23-.25-.66-.72-1.68-.14-.3-.29-.641-.33-.751l-.38-.85c-.16-.36-.35-.83-.42-1.05-.07-.22-.16-.44-.2-.5-.04-.05-.11-.28-.14-.5-.07-.4-.06-.41.32-.58.21-.09.43-.17.48-.17.1 0 .96-.42 1.04-.51.03-.03.21-.11.4-.19.68-.26.79-.44.82-1.331.02-.44.08-.82.13-.84.06-.02.09.28.07.82-.03.681-.01.851.11.851.08 0 .57-.2 1.1-.451.53-.25.991-.45 1.021-.45.07 0 .38.641 1.11 2.281 1.28 2.86 2.04 4.641 2.04 4.771 0 .11-1.6.91-2.16 1.09-.19.06-.3-.14-1.291-2.361-1.51-3.41-1.39-3.19-1.75-3.07-.36.13-.39.35-.09.73.11.14.25.42.31.62.05.2.5 1.28.99 2.411.49 1.12.861 2.09.831 2.15-.09.14-2.051 1.08-2.241 1.08-.09 0-.27-.27-.44-.65zM49.258 27.545c-.15-.09-.28-.52-.16-.52.1 0 .38.48.31.54-.03.03-.09.02-.15-.02z"/><path fill="#E0E0DC" d="M6.13 27.305c-.14-.14-.16-.28-.03-.28.05 0 .11.09.14.2.06.23.05.24-.11.08zM48.918 26.775c0-.08.05-.15.1-.15.06 0 .1.07.1.15 0 .08-.04.15-.1.15-.05 0-.1-.07-.1-.15zM48.568 26.325c-.03-.05-.04-.14 0-.19.03-.05.01-.12-.05-.16a.233.233 0 0 1-.1-.17c0-.06.09.01.2.15.11.14.2.3.2.36 0 .14-.17.14-.25.01zM12.691 24.725c-.34-.611-.34-.671-.03-.921.14-.11.25-.28.25-.39 0-.12-.58-1.42-1.29-2.89l-1.29-2.691.22-.15c.37-.24 5.051-2.56 5.171-2.56.11 0 3.23 6.271 3.34 6.711.05.22-.03.28-1.09.81l-1.15.57-.21-.37c-.11-.2-.7-1.4-1.3-2.67-.61-1.261-1.151-2.341-1.201-2.391-.12-.12-.6.09-.6.26 0 .07.43 1.031.961 2.131.52 1.1.99 2.19 1.04 2.43.17.92-.14 1.33-1.621 2.121-.46.25-.85.46-.88.47-.03.02-.17-.2-.32-.47zM33.645 24.545c-.37-.541-.4-.701-.18-.781.09-.04.2-.15.25-.24.1-.19-.53-1.22-2.54-4.09-.47-.681-.861-1.271-.861-1.301 0-.03.371-.29.831-.57 3.56-2.21 4.28-2.64 4.36-2.59.11.06 1.601 2.19 3.261 4.641 1.11 1.65 1.17 1.75.99 1.88-.11.08-.61.4-1.13.71l-.93.56-.19-.25c-.1-.13-.89-1.27-1.761-2.54-.86-1.261-1.58-2.311-1.59-2.331-.04-.07-.64.29-.64.38 0 .06.5.83 1.12 1.721 1.481 2.14 1.781 2.65 1.781 3.04 0 .29-.25.72-.601 1.02-.19.16-1.77 1.221-1.82 1.221a4.2 4.2 0 0 1-.35-.48zM47.688 24.605c-.31-.421-.47-.861-.18-.491.25.331.53.811.47.811-.03 0-.16-.15-.29-.32zM46.768 23.334c.03-.05-.081-.24-.251-.42-.16-.19-.3-.37-.3-.41 0-.04-.17-.31-.37-.59-.2-.29-.31-.5-.23-.47.08.02.29.27.47.54s.46.67.63.9c.341.47.361.54.141.54-.08 0-.131-.04-.09-.09zM19.562 21.724c-.1-.16-2.45-7.221-2.45-7.361 0-.06.41-.33.9-.6.5-.261.9-.521.9-.571 0-.04-.18-.38-.4-.74-.22-.37-.4-.74-.4-.84 0-.09-.09-.28-.2-.42-.22-.28-.26-.78-.15-1.89.06-.57.04-.73-.15-1.1-.34-.701-.26-.961.46-1.431.55-.36 1.24-1.06 1.921-1.94.21-.28.25-.29.8-.24.69.06 1.08.36.99.75-.1.38-.49.9-.87 1.16-.36.24-.47.27-1.22.37-.521.07-1.111.41-1.161.68-.02.1.21.591.52 1.101.701 1.15.821 1.5.671 1.83-.281.61-.041 1.34.6 1.87.24.19.55.54.69.76.14.22.27.411.3.411.03 0 .15-.341.28-.751.12-.41.26-.75.31-.75.05 0 .07.09.04.2-.03.11 0 .34.07.5.1.24.1.36 0 .59-.22.551-.05 1.051.58 1.691.32.31.72.65.89.74.18.09.44.36.58.6 1.141 1.92 1.361 2.3 1.331 2.33-.02.02-.521.301-1.131.641l-1.1.6-.25-.31c-.73-.891-.62-.821-.99-.64-.17.09-.34.23-.37.3-.02.06.07.38.2.69l.25.56-1.07.57c-.59.32-1.12.61-1.19.66-.071.05-.141.05-.181-.02zm1.911-4.111c.05-.09-1.46-2.28-1.58-2.29-.08 0 .37 1.34.71 2.14.2.44.21.45.51.35.16-.06.33-.15.36-.2zm-3.141-7.021c-.19-.44-.42-.69-.42-.47 0 .12.27.68.43.88.19.24.19.04-.01-.41zM45.107 20.984c-.66-.65-.79-.9-.79-1.49 0-.4.04-.56.15-.611.17-.06.21.091.05.191-.15.09-.12.56.05.85.08.14.17.32.21.4.04.08.23.32.42.52.45.48.37.59-.09.14zM38.456 17.723c-1.31-1.64-2.39-3.05-2.39-3.11 0-.14 1.91-1.491 2.11-1.491.07 0 .48.451.9 1.001.42.55.78 1 .8 1 .01 0 .38-.22.82-.49 1.341-.83 1.981-.99 2.621-.66l.3.16v-.31c0-.441.16-.371.23.1.04.32.17.52.64.99.44.46.66.79.92 1.41.3.74.32.84.2 1.07-.08.14-.2.28-.29.31-.08.03-.37.24-.65.47-.56.45-2.65 1.871-3.361 2.281l-.45.27-2.4-3.001zm4.151.16c.2-.21.21-.27.1-.48-.21-.4-1.11-1.47-1.29-1.53-.201-.06-.701.13-.701.27 0 .12 1.501 1.98 1.591 1.98.04 0 .18-.11.3-.24z"/><path fill="#E0E0DC" d="M24.883 16.653c-2.36-4.141-2.77-4.891-2.77-5.001 0-.07.22-.37.49-.67.27-.3.55-.64.61-.76.06-.11.17-.19.24-.18.2.05.67-.58.77-1.02.11-.48.03-.88-.4-1.931-.36-.91-.37-1.02-.12-1.41.11-.17.18-.33.16-.36-.07-.11.77-.33.84-.23.03.05.22.16.411.23.19.08.87.64 1.5 1.25 1.72 1.651 1.49 1.52 2.12 1.17 1.38-.77 1.841-1.05 1.981-1.17.15-.12 1.15-.65 1.24-.65.07 0 .76 1.19.76 1.29 0 .05-.31.27-.7.5-.38.23-.7.461-.7.511 0 .05.16.34.35.64l.35.55.7-.4c.38-.21.71-.39.73-.39.05 0 .77 1.16.77 1.24 0 .03-.15.13-.32.22-.18.09-.5.28-.71.41l-.38.24.22.37c.12.2.33.52.46.7l.24.32.84-.46.85-.45.39.62c.221.35.381.66.361.69-.05.08-3.621 2.161-3.861 2.251-.11.04-.22-.04-.36-.27-.11-.18-.51-.82-.88-1.431-.37-.6-.951-1.55-1.281-2.1-1.29-2.13-1.68-2.69-1.78-2.54-.18.28-.1.93.16 1.31.14.2.4.7.59 1.1.18.4.81 1.59 1.39 2.63 1.231 2.191 1.261 1.851-.27 2.711-.5.29-.94.5-.97.48-.04-.02-.41-.64-.83-1.38-.7-1.23-.79-1.34-.98-1.27-.45.16-.44.34.04 1.17.92 1.61 1 1.76.94 1.89-.05.13-1.96 1.25-2.14 1.25-.05 0-.53-.75-1.051-1.67zm1.291-4.181c.18-.14.18-.17-.3-1.08-.27-.52-.57-1.05-.66-1.18l-.181-.23-.07.46c-.05.33-.03.54.09.76.091.17.161.36.161.43 0 .21.5.99.64.99.06 0 .21-.07.32-.15z"/><path fill="#E0E0DC" d="M4.71 17.003c0-.07-.14-.19-.3-.27-.45-.19-2.821-3-3.221-3.801-.18-.36-.45-.85-.6-1.07-.42-.63-.61-1.7-.56-3.23.04-1.091.08-1.331.3-1.811.14-.3.38-.88.54-1.29.34-.86 1.26-1.95 1.72-2.04.29-.05.86-.24 1.141-.38.1-.05.33-.09.52-.09s.47-.05.63-.11c.9-.351 5.441-.13 7.881.37 1.681.35 1.48.36 2.171-.13.88-.621 3.23-1.751 4.48-2.161 1.311-.43 2.171-.68 2.271-.65.04.01.23-.02.41-.06.19-.04.46-.1.6-.13.15-.03 1.31-.07 2.591-.1 2.38-.04 3.11.02 4.83.43.711.17 2.391.72 2.551.83.06.04.3.14.55.21.25.08.59.22.75.32.17.1.41.18.54.18.22 0 .44.14 1.2.811.411.35.441.35.981.07.35-.19.47-.211.71-.12.26.1.3.09.41-.151.06-.14.37-.44.68-.66.31-.22.61-.44.67-.5.06-.05.25-.17.41-.25.17-.08.42-.26.56-.4.14-.14.52-.38.83-.53l.561-.29.59.54c.32.3.8.72 1.07.93.51.41 1.75 1.561 3.32 3.091l.921.9v.51c0 .54-.18.79-.781 1.13-.34.19-.39.08-.06-.15.461-.32.741-.65.741-.89 0-.13-.04-.24-.08-.24-.05 0-.521.27-1.051.6-.52.33-.99.6-1.05.6-.05 0-.28-.22-.51-.5l-.42-.49-.44.26c-.49.3-.49.34.09 1.07.19.23.26.41.2.43-.07.02-.58.331-1.15.701-.57.36-1.09.67-1.16.7-.09.04-.441-.58-1.091-1.931-2.11-4.39-2.38-4.941-2.44-4.941-.04 0-.15.21-.25.461-.16.44-.17.49-.01.81.09.2.16.37.14.38-.02.01-.29.19-.6.39s-.59.39-.61.43c-.03.05.37.73.88 1.53 1.76 2.731 2.35 3.681 2.35 3.771 0 .13-2.11 1.35-2.25 1.3-.06-.03-.83-1.16-1.71-2.52-.871-1.361-1.641-2.491-1.701-2.521-.06-.02-.38.12-.72.31-.33.2-.63.36-.65.36-.08 0-.77-1.13-.77-1.25 0-.11.88-.68 2.4-1.58.53-.3 1.06-.64 1.19-.74l.231-.19-.651-.33c-.53-.271-.73-.321-1.02-.271-.27.051-.42.02-.63-.12-.15-.11-.5-.22-.79-.25-.28-.03-.73-.15-1-.26-.26-.12-1.1-.32-1.851-.46-1.19-.22-1.66-.25-3.45-.25-1.14 0-2.141.04-2.221.09-.1.07-.23.03-.39-.1a1.1 1.1 0 0 0-.54-.19h-.3l.32.26c.26.22.31.33.28.63-.02.27-.11.4-.37.58-.24.161-.38.201-.45.131-.05-.051-.47-.101-.93-.101-.64 0-.98.06-1.49.251-.36.14-.85.25-1.081.25h-.41l.38.36c.511.48.491.94-.04.91-.18-.02-.25-.07-.22-.18.03-.11-.08-.19-.38-.28-.42-.13-.5-.1-.62.23-.06.17-.24-.03-.3-.33-.04-.18 0-.45.08-.66l.15-.35h-.29c-.37 0-.62-.1-.55-.211.1-.16-.2-.09-.46.111-.31.24-.39.25-.55.03-.12-.161-.16-.151-.61.07-.27.14-.64.37-.82.53-.18.15-.47.33-.65.41-.181.07-.941.77-1.691 1.55l-1.38 1.41h-.6c-.78 0-2.361.17-3.241.36-1.08.23-2.26.83-3 1.541-.66.63-.76.69-.76.46 0-.08-.09-.33-.191-.56-.19-.421-.19-.441 0-1.131.271-.96.401-1.24.931-2.03.5-.74.55-.94.3-1.15-.09-.08-.27-.31-.4-.51-.22-.34-.27-.37-.56-.31-.631.12-1.371.55-1.881 1.09-.46.48-.89 1.21-.9 1.5 0 .15.43.64.56.64.11 0 .34.64.34.91 0 .39.57 2.131.77 2.351.13.14.23.29.23.34 0 .13.42.4.62.4.111 0 .151-.05.121-.15-.04-.08-.02-.15.04-.15.05 0 .12.19.15.41.03.23.09.45.14.48.15.11.33.61.33.94.01.35.5 1.14.69 1.1.06-.02.11.02.11.08s.2.291.43.521c.39.37.44.48.46.89.02.47-.01.56-.63 1.88-.2.42-.56.67-.56.38zM42.907 5.151c.17-.1.31-.22.31-.26 0-.04-.36-.45-.8-.9-.73-.75-.79-.8-.8-.55 0 .28.77 1.88.91 1.88.04 0 .21-.08.38-.17zM43.327 12.812c-.05-.13-.2-.53-.35-.88-.29-.72-.3-.74-.17-.67.12.08.45.78.61 1.29.13.42.06.64-.09.26z"/><path fill="#E0E0DC" d="M17.382 12.852c-.04-.03-.07-.23-.07-.44s-.06-.42-.13-.46c-.3-.18-.51-.65-.48-1.11.01-.26.07-.49.12-.53.05-.03.07-.14.03-.24-.05-.13-.03-.16.07-.13.08.03.13.16.11.31-.01.15.08.64.22 1.09.38 1.3.43 1.81.13 1.51zM7.92 12.302c-.01-.23.09-.48.21-.48.07 0 .07.04 0 .13-.05.06-.12.21-.15.32-.03.15-.05.16-.06.03zM8.2 11.442c.16-.3.33-.38.22-.11-.04.13-.14.25-.2.27-.1.03-.1 0-.02-.16zM8.51 10.902c0-.18.501-.91.581-.84.03.04-.04.2-.16.36-.121.16-.221.34-.221.39 0 .05-.04.13-.1.16-.05.03-.1 0-.1-.07zM42.187 10.052c-.03-.04.01-.17.09-.28.1-.13.14-.15.14-.04 0 .2-.16.43-.23.32zM16.622 9.602c-.01-.14-.04-.33-.07-.42-.04-.1 0-.14.14-.13.2.01.2.03-.01.67-.03.08-.06.03-.06-.12zM4.31 9.352c0-.12.38-.48.45-.41.03.02-.06.15-.2.28-.14.13-.25.19-.25.13zM9.411 9.282c0-.03.14-.25.3-.49.17-.25.3-.48.3-.52 0-.09.31-.341.42-.351.08 0-.82 1.341-.93 1.381-.05.02-.09.01-.09-.02zM43.117 9.152c0-.13.29-.38.35-.31.03.03-.04.13-.15.23-.11.1-.2.13-.2.08zM15.842 8.442c-.02-.351-.02-.361.12-.18.18.24.19.31.03.44-.1.08-.14.02-.15-.26zM43.617 8.692c0-.03.16-.14.35-.26.19-.11.35-.17.35-.12 0 .07-.14.15-.62.39-.05.02-.08.01-.08-.01zM7.41 7.621c.2-.13.43-.13.35 0-.03.06-.16.1-.28.1-.18 0-.19-.02-.07-.1zM45.317 7.671c0-.1.59-.34.64-.26.03.04-.06.13-.2.2-.26.12-.44.14-.44.06zM9.791 7.551c-.75-.06-.56-.23.25-.23.65.01.7.02.53.15-.11.08-.22.14-.25.13-.03-.01-.27-.03-.53-.05zM38.326 4.981c-.28-.29-.32-.39-.26-.63.07-.27.08-.27.37.31.16.32.28.6.25.62-.02.02-.18-.12-.36-.3zM20.513 3.861c0-.06-.17-.18-.37-.28-.29-.14-.34-.2-.22-.27.08-.05.26-.09.41-.09.21 0 .29.06.34.26.04.14.02.3-.05.37s-.11.07-.11.01z"/></svg>